<svg id="Layer_1" data-name="Layer 1" xmlns="http://www.w3.org/2000/svg" viewBox="0 0 499.77 405.98"><defs><style>.cls-1{fill:#fff;}.cls-2{fill:#265787;}.cls-3{fill:#ea7600;}</style></defs><title>blender</title><path class="cls-1" d="M196.49,225.35c1.82-32.49,17.73-61.11,41.73-81.4,23.54-19.92,55.22-32.1,89.78-32.1S394.21,124,417.77,144c24,20.29,39.89,48.91,41.73,81.37,1.82,33.38-11.6,64.39-35.14,87.37-24,23.38-58.13,38.06-96.36,38.06s-72.43-14.68-96.41-38.06C208,289.71,194.66,258.7,196.49,225.35Z"/><path class="cls-2" d="M260.53,228.27c.93-16.67,9.1-31.36,21.41-41.77a72.65,72.65,0,0,1,92.13,0c12.3,10.41,20.47,25.1,21.41,41.75.93,17.13-6,33-18,44.83-12.31,12-29.83,19.53-49.44,19.53s-37.16-7.53-49.47-19.53C266.45,261.29,259.59,245.38,260.53,228.27Z"/><path class="cls-3" d="M153.08,262c.11,6.52,2.19,19.2,5.31,29.1a153.58,153.58,0,0,0,33.16,57.42,171.34,171.34,0,0,0,58,41.67A189.71,189.71,0,0,0,402,389.88,172.65,172.65,0,0,0,460,348a154.79,154.79,0,0,0,33.15-57.53,145.39,145.39,0,0,0,6.24-32.11,146.87,146.87,0,0,0-1-31.9,148.49,148.49,0,0,0-21.15-57.87,161.49,161.49,0,0,0-38.58-42.53l0,0L282.5,6.2c-.14-.11-.26-.22-.41-.32-10.24-7.86-27.47-7.83-38.73,0s-12.69,21.14-2.56,29.46l0,0,65.11,53-198.46.21h-.27C90.74,88.61,75,99.37,71.85,113c-3.21,13.86,7.93,25.36,25,25.42l0,.06,100.6-.19L17.9,276l-.69.51C.28,289.52-5.2,311.08,5.47,324.73c10.82,13.87,33.84,13.9,51,.08l98-80.18A152.15,152.15,0,0,0,153.08,262ZM404.82,298.2c-20.18,20.56-48.44,32.22-79,32.28s-58.89-11.5-79.07-32a93.92,93.92,0,0,1-21.58-33.78,87.69,87.69,0,0,1-5-37.74A89.11,89.11,0,0,1,231,191.39a98,98,0,0,1,24-28.55c19.62-16,44.6-24.65,70.73-24.68s51.12,8.54,70.76,24.48a97.5,97.5,0,0,1,24,28.46,89.19,89.19,0,0,1,10.86,35.52,87.81,87.81,0,0,1-5,37.72A94.33,94.33,0,0,1,404.82,298.2Z"/></svg>